<?xml version="1.0" encoding="utf-8"?>
<!-- Generator: Adobe Illustrator 22.1.0, SVG Export Plug-In . SVG Version: 6.00 Build 0)  -->
<svg version="1.1" id="Layer_1" xmlns="http://www.w3.org/2000/svg" xmlns:xlink="http://www.w3.org/1999/xlink" x="0px" y="0px"
	 viewBox="0 0 582 167" style="enable-background:new 0 0 582 167;" xml:space="preserve">
<style type="text/css">
	.st0{fill:#15C8B1;}
	.st1{fill:#1B2431;}
</style>
<path class="st0" d="M116.6,27.8h-4.9V0H83.8v27.8H55.9V0h-28v27.8H0v27.8h27.9v55.7H0v27.8h27.9V167h27.9v-27.8h27.9V167h27.9
	v-27.8h4.9c30.8,0,55.9-24.9,55.9-55.7C172.5,52.8,147.5,27.8,116.6,27.8 M116.6,111.4H55.9V55.7h60.8c15.4,0,27.9,12.5,27.9,27.8
	C144.6,98.9,132,111.4,116.6,111.4"/>
<path class="st1" d="M245.4,40.8h-33.5v83.4h33.5c23.1,0,40.7-18.1,40.7-41.7S268.5,40.8,245.4,40.8z M245.4,105.9H231V59.2h14.3
	c13.2,0,22.2,9.1,22.2,23.4S258.5,105.9,245.4,105.9z"/>
<path class="st1" d="M312.2,101.6h42.5c0.5-2.3,0.7-4.6,0.7-7.2c0-18-12.9-31.5-30.4-31.5c-18.9,0-31.8,13.7-31.8,31.5
	s12.7,31.5,33.1,31.5c11.4,0,20.2-4.2,26.1-12.3l-14.3-8.2c-2.4,2.6-6.6,4.5-11.5,4.5C320,110,314.5,107.8,312.2,101.6z M311.9,88.3
	c1.7-6.1,6.2-9.4,13-9.4c5.4,0,10.8,2.5,12.7,9.4H311.9z"/>
<path class="st1" d="M383.5,75.3V64.7h-17.9v59.6h17.9v-27c0-11.8,10.5-14.8,17.9-13.6V63.5C393.9,63.5,385.9,67.3,383.5,75.3z"/>
<path class="st1" d="M418.8,59.4c5.9,0,10.8-4.9,10.8-10.7S424.7,38,418.8,38S408,42.9,408,48.7S412.9,59.4,418.8,59.4z
	 M409.8,124.3h17.9V64.7h-17.9V124.3z"/>
<path class="st1" d="M476.7,63c-8,0-13.9,2.7-17.8,7.3V40.8H441v83.4h17.9v-5.6c3.9,4.5,9.8,7.3,17.8,7.3
	c15.7,0,28.6-13.7,28.6-31.5C505.2,76.7,492.3,63,476.7,63z M473.1,109c-8.3,0-14.2-5.6-14.2-14.5s6-14.5,14.2-14.5
	c8.3,0,14.2,5.6,14.2,14.5C487.3,103.4,481.3,109,473.1,109z"/>
<path class="st1" d="M524.4,59.4c5.9,0,10.8-4.9,10.8-10.7S530.3,38,524.4,38c-5.9,0-10.8,4.9-10.8,10.7
	C513.6,54.5,518.5,59.4,524.4,59.4z M515.4,124.3h17.9V64.7h-17.9V124.3z"/>
<path class="st1" d="M581.6,81.8V64.7h-12.3V48l-17.9,5.4v11.3h-9.6v17.2h9.6V103c0,16.7,6.8,23.7,30.3,21.3V108
	c-7.9,0.5-12.3,0-12.3-5.1V81.8H581.6z"/>
</svg>
