<svg width="183" height="91" viewBox="0 0 183 91" fill="none" xmlns="http://www.w3.org/2000/svg">
<path d="M84.5566 7.39711C83.5517 7.73877 82.8469 8.01726 82.1162 8.22541C77.9614 9.38734 74.3864 12.0512 72.0848 15.7002C70.1454 18.6588 68.2332 21.6375 66.2838 24.5904C64.7794 26.87 63.1027 29.0233 61.393 31.155C60.1627 32.6896 59.1277 34.3735 60.0795 36.4234C61.0312 38.4733 62.9965 38.9542 65.0076 39.0361C67.8929 39.1822 70.7779 38.7408 73.4876 37.7388C76.1972 36.7367 78.6752 35.1947 80.7711 33.2064C82.2799 31.8269 83.6594 30.3066 85.0992 28.851C85.339 28.6084 85.5414 28.2223 85.8256 28.1491C88.2172 27.5318 90.6217 26.9647 93.0262 26.4006C93.4382 26.3044 93.609 26.6877 93.8215 26.9375C99.865 33.9185 107.859 38.9315 116.775 41.3315C117.348 41.4854 117.884 41.7503 118.355 42.111C127.269 49.201 136.457 55.9265 145.742 62.5227C146.232 62.7798 146.651 63.1544 146.962 63.6129C147.272 64.0715 147.465 64.5997 147.522 65.1507C147.578 65.7016 147.498 66.258 147.288 66.7703C147.077 67.2826 146.743 67.7349 146.316 68.0868C143.348 71.1502 139.669 71.6483 135.686 70.6707C134.121 70.2335 132.655 69.5027 131.363 68.5174C123.333 62.8117 115.3 57.1098 107.265 51.4117C106.994 51.2049 106.712 51.0132 106.42 50.8375C106.271 50.7293 106.103 50.6527 105.924 50.6123C105.745 50.5719 105.559 50.5686 105.379 50.6027C105.199 50.6367 105.028 50.7073 104.876 50.8102C104.724 50.9131 104.595 51.046 104.496 51.2007C103.955 51.9831 104.66 52.3491 105.168 52.7094C113.606 58.798 122.046 64.8836 130.489 70.9664C133.151 72.8857 133.317 74.2337 131.207 76.7258C129.939 78.2773 128.204 79.3768 126.259 79.8597C124.315 80.3425 122.266 80.1828 120.42 79.4044C118.447 78.6981 116.624 77.6267 115.047 76.2463C109.767 71.7014 103.895 67.9518 98.3233 63.7989C98.0868 63.6182 97.8116 63.4949 97.5194 63.4385C97.2467 63.3686 96.9583 63.3932 96.7014 63.5085C96.4445 63.6238 96.2344 63.8228 96.1054 64.073C95.8082 64.6473 96.1599 65.0349 96.6006 65.365C98.8238 67.0207 101.046 68.6773 103.269 70.3348C107.34 73.3647 111.412 76.3937 115.485 79.4217C117.957 81.2663 117.937 83.0334 115.445 84.9341C113.496 86.2741 111.169 86.9528 108.806 86.8704C106.443 86.788 104.169 85.9487 102.318 84.4762C97.9041 81.1917 93.5444 77.8354 89.1603 74.5108C88.7871 74.2236 88.421 73.9294 88.0234 73.6824C87.8782 73.5696 87.7111 73.4882 87.5328 73.4434C87.3544 73.3985 87.1687 73.3913 86.9874 73.4221C86.8062 73.4528 86.6332 73.521 86.4797 73.6222C86.3261 73.7233 86.1953 73.8553 86.0955 74.0098C85.5299 74.7778 86.2247 75.1582 86.7242 75.5328C90.2528 78.2211 93.7841 80.9055 97.3184 83.5861C97.6654 83.8341 97.9958 84.1046 98.3075 84.3958C98.6733 84.6669 98.9654 85.0254 99.1571 85.4384C99.3488 85.8515 99.4341 86.3059 99.4051 86.7604C99.3762 87.2148 99.2339 87.6548 98.9912 88.0401C98.7486 88.4255 98.4134 88.7439 98.0161 88.9665C96.0918 90.2852 93.7353 90.8164 91.4313 90.4508C89.7715 90.2723 88.1731 89.7228 86.7544 88.843C84.426 87.4219 82.0961 85.9992 79.7203 84.6628C78.8375 84.1661 78.7887 83.7498 79.4045 83.032C79.8194 82.5497 80.1352 81.9841 80.507 81.463C82.1679 79.1432 83.0005 76.6368 81.7171 73.9078C81.0759 72.5953 80.0986 71.4759 78.8846 70.6635C77.6705 69.8511 76.263 69.3746 74.8051 69.2826C74.0959 69.1864 73.1973 69.4433 72.7107 69.0902C72.3231 68.8031 72.4738 67.8356 72.3101 67.1881C71.3125 63.2347 66.4675 60.4842 62.1552 61.4992C61.2724 61.7073 61.0384 61.5078 60.747 60.7125C60.2422 59.5529 59.4882 58.5187 58.5387 57.6834C57.5891 56.848 56.4672 56.232 55.2527 55.8792C54.0382 55.5263 52.7609 55.4453 51.5116 55.6418C50.2622 55.8382 49.0715 56.3074 48.0239 57.016C47.3421 57.54 47.21 57.273 46.8554 56.7289C45.7966 55.1919 44.287 54.0212 42.5347 53.3784C40.7824 52.7356 38.8739 52.6523 37.0723 53.1401C36.1867 53.3917 35.3613 53.82 34.6458 54.3993C33.9303 54.9786 33.3396 55.6969 32.9093 56.5107C32.4959 57.2529 32.1097 57.4223 31.3302 56.9414C29.164 55.5834 26.9562 54.2885 24.744 53.0066C24.1411 52.6578 23.9114 52.3936 24.2359 51.6342C29.4181 39.5203 34.5697 27.3964 39.6907 15.2623C39.9434 14.6637 40.2448 14.3651 40.8951 14.3838C47.6765 14.5833 53.6713 11.6319 59.8053 9.42981C68.3538 6.35779 74.5237 6.32334 84.5566 7.39424" fill="#1558C4"/>
<path d="M122.291 42.2C123.775 42.4873 125.288 42.591 126.797 42.5086C127.515 42.4282 128.276 42.2789 128.243 41.4104C128.211 40.5821 127.453 40.5721 126.786 40.5391C120.667 40.3516 114.66 38.8487 109.174 36.1326C103.688 33.4164 98.8516 29.5508 94.9929 24.7985C94.778 24.4811 94.4661 24.2417 94.1038 24.1163C93.7416 23.9908 93.3485 23.9859 92.9832 24.1023C90.5012 24.7182 88.0062 25.2823 85.5099 25.8393C84.8871 25.9831 84.3291 26.3282 83.9222 26.8212C82.1728 28.8644 80.257 30.7591 78.1944 32.4858C74.5996 35.4469 70.0438 36.9872 65.3896 36.8153C64.1607 36.7809 62.741 36.8153 62.1338 35.5047C61.5381 34.2242 62.5243 33.2351 63.2822 32.3279C66.3979 28.4272 69.2513 24.3241 71.8236 20.0455C72.2341 19.3967 72.6992 18.7808 73.0883 18.1205C74.2735 16.0623 75.8661 14.2675 77.7686 12.8458C79.6712 11.4241 81.8436 10.4054 84.1533 9.85186C87.1162 9.06663 90.0088 8.01296 92.9215 7.04541C95.1667 6.48735 97.5097 6.44954 99.7718 6.93488C108.787 8.0833 117.694 9.85186 126.573 11.7683C131.594 12.9642 136.69 13.8151 141.827 14.3149C142.181 14.3064 142.529 14.4127 142.818 14.6178C143.107 14.823 143.322 15.116 143.43 15.4533C148.503 27.4744 153.599 39.4849 158.719 51.4849C159.083 52.3463 158.862 52.6233 158.114 52.9994C154.182 54.9546 150.278 56.9672 146.369 58.9683C146.138 59.1509 145.854 59.2523 145.559 59.257C145.265 59.2617 144.978 59.1693 144.741 58.9942C137.341 53.5909 129.876 48.2636 122.625 42.6407C122.501 42.5078 122.389 42.3636 122.291 42.21" fill="#38B1ED"/>
<path d="M167.745 0.752075C168.263 0.783657 168.219 1.24877 168.319 1.58181C170.329 7.83112 172.339 14.0819 174.349 20.3341C177.181 29.1841 179.99 38.0427 182.858 46.8826C183.18 47.8732 182.979 48.1502 181.997 48.4115C175.903 50.0384 169.822 51.717 163.754 53.4473C162.846 53.7057 162.505 53.4889 162.148 52.6592C156.214 38.8294 150.254 25.0096 144.267 11.1998C143.887 10.3242 143.93 9.90785 144.92 9.53748C152.296 6.73821 159.647 3.88008 167.004 1.03918L167.745 0.752075Z" fill="#38B1ED"/>
<path d="M39.1266 10.2624C39.0189 10.5065 38.9156 10.7404 38.8151 10.9802C32.8165 24.9048 26.8237 38.8322 20.8366 52.7625C20.4906 53.5693 20.1418 53.6913 19.3193 53.4588C13.1733 51.717 7.01681 50.0159 0.849797 48.3555C0.0487741 48.1402 -0.15507 47.9248 0.109066 47.0807C4.98985 31.9206 9.84575 16.7519 14.6768 1.57462C14.9036 0.856857 15.1218 0.650142 15.9013 0.955908C23.3559 3.87289 30.8307 6.74107 38.2954 9.64083C38.6041 9.76141 39.0993 9.72696 39.1324 10.2581" fill="#1558C4"/>
<path d="M52.6592 57.7137C54.1181 57.7321 55.5366 58.1959 56.7246 59.043C57.2805 59.3699 57.7602 59.8115 58.1319 60.3385C58.5036 60.8654 58.7587 61.4655 58.8802 62.0989C59.0016 62.7322 58.9866 63.3841 58.8362 64.0112C58.6858 64.6383 58.4034 65.2261 58.0079 65.7354C56.3011 68.282 54.5627 70.8128 52.7697 73.2977C52.1937 74.1564 51.3825 74.8309 50.4332 75.2408C49.4839 75.6507 48.4367 75.7785 47.4167 75.6089C46.3256 75.5079 45.2817 75.1161 44.3936 74.4743C43.5056 73.8324 42.8061 72.9641 42.3679 71.9598C42.0854 71.3561 41.9713 70.6872 42.0375 70.0239C42.1037 69.3607 42.3478 68.7276 42.744 68.1916C44.6346 65.4095 46.5424 62.6375 48.4172 59.844C48.8643 59.1377 49.4952 58.5664 50.2422 58.1914C50.9892 57.8163 51.8243 57.6517 52.6578 57.7151" fill="#38B1ED"/>
<path d="M70.2819 68.7572C70.2831 69.7024 69.9968 70.6256 69.4608 71.4043C67.7052 73.971 65.961 76.5463 64.1494 79.0714C63.5936 79.917 62.8103 80.5884 61.8896 81.0082C60.969 81.4281 59.9484 81.5792 58.9456 81.4443C57.831 81.3618 56.7591 80.9806 55.8427 80.3408C54.9263 79.7009 54.1991 78.8261 53.7375 77.8081C53.4426 77.2327 53.3126 76.5869 53.3617 75.9422C53.4109 75.2974 53.6373 74.6788 54.016 74.1547C56.0669 71.2234 58.0852 68.2705 60.0711 65.2961C61.2855 63.4874 63.7316 63.038 66.218 63.9065C67.3242 64.1764 68.3151 64.7927 69.0462 65.6656C69.7773 66.5385 70.2103 67.6222 70.2819 68.7586" fill="#38B1ED"/>
<path d="M71.4575 86.3265C69.8412 86.2814 68.2893 85.6835 67.0605 84.6326C66.5889 84.314 66.1897 83.8996 65.8889 83.4164C65.5882 82.9332 65.3927 82.392 65.3151 81.8282C65.2375 81.2644 65.2795 80.6905 65.4385 80.144C65.5975 79.5975 65.8699 79.0907 66.2379 78.6565C67.3734 76.954 68.5491 75.2759 69.6544 73.5532C70.0903 72.8636 70.702 72.3025 71.4266 71.9276C72.1512 71.5527 72.9626 71.3775 73.7773 71.42C75.328 71.4072 76.8385 71.9124 78.0695 72.8556C78.5599 73.1662 78.9843 73.5704 79.3183 74.0452C79.6524 74.5199 79.8896 75.0559 80.0164 75.6224C80.1432 76.1889 80.1571 76.7748 80.0573 77.3466C79.9574 77.9185 79.7459 78.4651 79.4347 78.9551C78.3213 80.8224 77.098 82.6219 75.7712 84.3441C75.263 84.9957 74.6059 85.5159 73.855 85.8611C73.1042 86.2063 72.2815 86.3664 71.456 86.328" fill="#38B1ED"/>
<path d="M39.5228 55.0063C40.9517 55.0779 42.3318 55.5489 43.5064 56.3657C44.0276 56.6861 44.4778 57.1097 44.8294 57.6104C45.181 58.1111 45.4266 58.6783 45.551 59.2773C45.6755 59.8763 45.6763 60.4944 45.5533 61.0937C45.4303 61.693 45.1861 62.2609 44.8357 62.7624C44.2357 63.7443 43.5969 64.7032 42.9279 65.6335C42.3505 66.5442 41.4897 67.2399 40.478 67.6132C39.4663 67.9865 38.3599 68.0167 37.3294 67.6992C36.1885 67.475 35.1365 66.9266 34.2994 66.1198C33.4622 65.3129 32.8754 64.2818 32.6094 63.15C31.9246 59.9229 36.036 55.0206 39.5257 55.002" fill="#38B1ED"/>
</svg>
